<svg width="558" height="139" viewBox="0 0 558 139" fill="none" xmlns="http://www.w3.org/2000/svg">
<rect x="2.5" y="2.5" width="553" height="133.566" rx="20.5" fill="#3333EE" stroke="#F2F2F2" stroke-width="5"/>
<path d="M28.632 24.392C30.296 24.392 31.624 24.552 32.616 24.872C33.608 25.192 34.616 25.656 35.64 26.264C35.992 26.456 36.296 26.616 36.552 26.744C36.84 26.872 37.08 26.936 37.272 26.936C37.56 26.936 37.784 26.776 37.944 26.456C38.104 26.104 38.232 25.56 38.328 24.824H39.432C39.272 26.968 39.192 30.616 39.192 35.768H38.088C37.96 34.04 37.56 32.392 36.888 30.824C36.248 29.256 35.32 27.992 34.104 27.032C32.92 26.04 31.528 25.544 29.928 25.544C28.36 25.544 27.08 25.992 26.088 26.888C25.128 27.752 24.648 28.936 24.648 30.44C24.648 31.56 24.888 32.536 25.368 33.368C25.848 34.2 26.52 34.968 27.384 35.672C28.248 36.344 29.576 37.272 31.368 38.456L32.904 39.512C34.792 40.76 36.28 41.848 37.368 42.776C38.456 43.704 39.336 44.792 40.008 46.04C40.712 47.256 41.064 48.68 41.064 50.312C41.064 52.36 40.536 54.088 39.48 55.496C38.424 56.872 36.984 57.912 35.16 58.616C33.368 59.32 31.368 59.672 29.16 59.672C27.368 59.672 25.88 59.512 24.696 59.192C23.512 58.872 22.424 58.44 21.432 57.896C20.728 57.448 20.184 57.224 19.8 57.224C19.512 57.224 19.288 57.4 19.128 57.752C18.968 58.072 18.84 58.6 18.744 59.336H17.64C17.768 57.32 17.832 53 17.832 46.376H18.936C19.16 49.96 19.96 52.872 21.336 55.112C22.712 57.32 24.824 58.424 27.672 58.424C29.4 58.424 30.824 57.96 31.944 57.032C33.064 56.104 33.624 54.776 33.624 53.048C33.624 51.256 33.048 49.72 31.896 48.44C30.744 47.16 28.92 45.72 26.424 44.12C24.504 42.872 22.968 41.784 21.816 40.856C20.664 39.928 19.72 38.84 18.984 37.592C18.248 36.312 17.88 34.84 17.88 33.176C17.88 31.256 18.36 29.64 19.32 28.328C20.312 26.984 21.624 25.992 23.256 25.352C24.888 24.712 26.68 24.392 28.632 24.392ZM55.8953 45.272V53.624C55.8953 54.904 56.0233 55.848 56.2793 56.456C56.5673 57.032 57.0473 57.416 57.7193 57.608C58.4233 57.8 59.5273 57.912 61.0313 57.944V59C57.0953 58.904 54.1673 58.856 52.2473 58.856C50.6473 58.856 48.6313 58.888 46.1992 58.952L44.6633 59V58.04C45.7193 57.976 46.4873 57.848 46.9673 57.656C47.4793 57.464 47.8153 57.096 47.9753 56.552C48.1673 56.008 48.2633 55.128 48.2633 53.912V30.104C48.2633 28.888 48.1673 28.008 47.9753 27.464C47.8153 26.92 47.4793 26.552 46.9673 26.36C46.4873 26.168 45.7193 26.04 44.6633 25.976V25.016C46.2953 25.112 48.7273 25.16 51.9593 25.16L57.2873 25.112C57.9273 25.08 58.6633 25.064 59.4953 25.064C63.8153 25.064 67.1113 25.928 69.3833 27.656C71.6553 29.352 72.7913 31.64 72.7913 34.52C72.7913 36.28 72.3433 37.976 71.4473 39.608C70.5513 41.208 69.0313 42.552 66.8873 43.64C64.7753 44.728 61.9593 45.272 58.4393 45.272H55.8953ZM58.8713 25.976C58.0073 25.976 57.3673 26.088 56.9513 26.312C56.5673 26.536 56.2953 26.936 56.1353 27.512C55.9753 28.088 55.8953 28.952 55.8953 30.104V44.312H57.9593C60.5513 44.312 62.3433 43.48 63.3353 41.816C64.3273 40.152 64.8233 37.896 64.8233 35.048C64.8233 31.944 64.3593 29.656 63.4313 28.184C62.5353 26.712 61.0153 25.976 58.8713 25.976ZM92.8373 24.344C96.2293 24.344 99.1893 25.032 101.717 26.408C104.277 27.784 106.261 29.784 107.669 32.408C109.077 35 109.781 38.104 109.781 41.72C109.781 45.24 109.061 48.36 107.621 51.08C106.181 53.8 104.165 55.912 101.573 57.416C99.0133 58.92 96.0853 59.672 92.7893 59.672C89.3973 59.672 86.4213 58.984 83.8613 57.608C81.3333 56.232 79.3653 54.248 77.9573 51.656C76.5493 49.032 75.8453 45.912 75.8453 42.296C75.8453 38.776 76.5653 35.656 78.0053 32.936C79.4453 30.216 81.4453 28.104 84.0053 26.6C86.5973 25.096 89.5413 24.344 92.8373 24.344ZM92.6453 25.208C90.8853 25.208 89.3333 25.928 87.9893 27.368C86.6453 28.776 85.6053 30.76 84.8693 33.32C84.1653 35.88 83.8133 38.808 83.8133 42.104C83.8133 45.432 84.2133 48.36 85.0133 50.888C85.8453 53.416 86.9493 55.368 88.3253 56.744C89.7333 58.12 91.2853 58.808 92.9813 58.808C94.7413 58.808 96.2933 58.104 97.6373 56.696C98.9813 55.256 100.005 53.256 100.709 50.696C101.445 48.136 101.813 45.208 101.813 41.912C101.813 38.584 101.397 35.656 100.565 33.128C99.7653 30.6 98.6613 28.648 97.2533 27.272C95.8773 25.896 94.3413 25.208 92.6453 25.208ZM145.645 56.888C144.781 57.88 143.853 58.584 142.861 59C141.869 59.448 140.669 59.672 139.261 59.672C137.405 59.672 135.933 59.288 134.845 58.52C133.789 57.72 133.101 56.376 132.781 54.488L131.917 49.688C131.501 47.352 130.989 45.64 130.381 44.552C129.805 43.432 128.829 42.872 127.453 42.872H124.333V53.912C124.333 55.128 124.413 56.008 124.573 56.552C124.765 57.096 125.101 57.464 125.581 57.656C126.061 57.848 126.845 57.976 127.933 58.04V59C126.205 58.904 123.789 58.856 120.685 58.856C117.261 58.856 114.733 58.904 113.101 59V58.04C114.157 57.976 114.925 57.848 115.405 57.656C115.917 57.464 116.253 57.096 116.413 56.552C116.605 56.008 116.701 55.128 116.701 53.912V30.104C116.701 28.888 116.605 28.008 116.413 27.464C116.253 26.92 115.917 26.552 115.405 26.36C114.925 26.168 114.157 26.04 113.101 25.976V25.016C114.733 25.112 117.165 25.16 120.397 25.16L125.725 25.112C126.365 25.08 127.101 25.064 127.933 25.064C132.349 25.064 135.661 25.784 137.869 27.224C140.109 28.664 141.229 30.728 141.229 33.416C141.229 35.688 140.397 37.688 138.733 39.416C137.069 41.144 134.317 42.232 130.477 42.68C133.357 42.936 135.501 43.56 136.909 44.552C138.317 45.544 139.229 47.032 139.645 49.016L140.749 53.96C141.005 55.24 141.293 56.136 141.613 56.648C141.965 57.16 142.445 57.416 143.053 57.416C143.437 57.384 143.757 57.288 144.013 57.128C144.301 56.968 144.621 56.696 144.973 56.312L145.645 56.888ZM127.309 25.976C126.445 25.976 125.805 26.088 125.389 26.312C125.005 26.536 124.733 26.936 124.573 27.512C124.413 28.088 124.333 28.952 124.333 30.104V41.912H126.397C129.021 41.912 130.813 41.224 131.773 39.848C132.765 38.44 133.261 36.472 133.261 33.944C133.261 31.32 132.797 29.336 131.869 27.992C130.941 26.648 129.421 25.976 127.309 25.976ZM175.379 25.016C175.155 28.056 175.043 30.776 175.043 33.176C175.043 34.68 175.091 35.896 175.187 36.824H174.083C173.315 32.888 172.259 30.12 170.915 28.52C169.603 26.92 167.795 26.12 165.491 26.12H164.387V53.528C164.387 54.872 164.515 55.848 164.771 56.456C165.059 57.064 165.539 57.48 166.211 57.704C166.915 57.896 168.019 58.008 169.523 58.04V59C165.491 58.904 162.451 58.856 160.403 58.856C158.387 58.856 155.459 58.904 151.618 59V58.04C153.123 58.008 154.211 57.896 154.883 57.704C155.587 57.48 156.067 57.064 156.323 56.456C156.611 55.848 156.755 54.872 156.755 53.528V26.12H155.699C154.163 26.12 152.851 26.456 151.763 27.128C150.707 27.8 149.795 28.92 149.027 30.488C148.259 32.024 147.603 34.136 147.059 36.824H145.955C146.051 35.896 146.099 34.68 146.099 33.176C146.099 30.776 145.987 28.056 145.763 25.016C148.675 25.112 153.619 25.16 160.595 25.16C167.571 25.16 172.499 25.112 175.379 25.016ZM190.257 24.392C191.921 24.392 193.249 24.552 194.241 24.872C195.233 25.192 196.241 25.656 197.265 26.264C197.617 26.456 197.921 26.616 198.177 26.744C198.465 26.872 198.705 26.936 198.897 26.936C199.185 26.936 199.409 26.776 199.569 26.456C199.729 26.104 199.857 25.56 199.953 24.824H201.057C200.897 26.968 200.817 30.616 200.817 35.768H199.713C199.585 34.04 199.185 32.392 198.513 30.824C197.873 29.256 196.945 27.992 195.729 27.032C194.545 26.04 193.153 25.544 191.553 25.544C189.985 25.544 188.705 25.992 187.713 26.888C186.753 27.752 186.273 28.936 186.273 30.44C186.273 31.56 186.513 32.536 186.993 33.368C187.473 34.2 188.145 34.968 189.009 35.672C189.873 36.344 191.201 37.272 192.993 38.456L194.529 39.512C196.417 40.76 197.905 41.848 198.993 42.776C200.081 43.704 200.961 44.792 201.633 46.04C202.337 47.256 202.689 48.68 202.689 50.312C202.689 52.36 202.161 54.088 201.105 55.496C200.049 56.872 198.609 57.912 196.785 58.616C194.993 59.32 192.993 59.672 190.785 59.672C188.993 59.672 187.505 59.512 186.321 59.192C185.137 58.872 184.049 58.44 183.057 57.896C182.353 57.448 181.809 57.224 181.425 57.224C181.137 57.224 180.913 57.4 180.753 57.752C180.593 58.072 180.465 58.6 180.369 59.336H179.265C179.393 57.32 179.457 53 179.457 46.376H180.561C180.785 49.96 181.585 52.872 182.961 55.112C184.337 57.32 186.449 58.424 189.297 58.424C191.025 58.424 192.449 57.96 193.569 57.032C194.689 56.104 195.249 54.776 195.249 53.048C195.249 51.256 194.673 49.72 193.521 48.44C192.369 47.16 190.545 45.72 188.049 44.12C186.129 42.872 184.593 41.784 183.441 40.856C182.289 39.928 181.345 38.84 180.609 37.592C179.873 36.312 179.505 34.84 179.505 33.176C179.505 31.256 179.985 29.64 180.945 28.328C181.937 26.984 183.249 25.992 184.881 25.352C186.513 24.712 188.305 24.392 190.257 24.392ZM57.912 89.976C56.824 90.04 56.04 90.168 55.56 90.36C55.08 90.552 54.744 90.92 54.552 91.464C54.392 92.008 54.312 92.888 54.312 94.104V117.912C54.312 119.128 54.392 120.008 54.552 120.552C54.744 121.096 55.08 121.464 55.56 121.656C56.072 121.848 56.856 121.976 57.912 122.04V123C56.152 122.904 53.64 122.856 50.376 122.856C46.952 122.856 44.424 122.904 42.792 123V122.04C43.944 121.976 44.776 121.848 45.288 121.656C45.832 121.464 46.2 121.096 46.392 120.552C46.584 120.008 46.68 119.128 46.68 117.912V92.808L35.112 123.048H34.344L21.384 92.136V115.128C21.384 117.016 21.48 118.408 21.672 119.304C21.864 120.168 22.28 120.808 22.92 121.224C23.56 121.608 24.6 121.88 26.04 122.04V123C24.792 122.904 23.064 122.856 20.856 122.856C19.096 122.856 17.704 122.904 16.68 123V122.04C17.736 121.88 18.504 121.608 18.984 121.224C19.496 120.84 19.832 120.232 19.992 119.4C20.184 118.568 20.28 117.336 20.28 115.704V94.104C20.28 92.888 20.184 92.008 19.992 91.464C19.832 90.92 19.496 90.552 18.984 90.36C18.504 90.168 17.736 90.04 16.68 89.976V89.016C17.704 89.112 19.096 89.16 20.856 89.16C23.8 89.16 26.328 89.112 28.44 89.016L38.136 112.392L46.968 89.16H50.376C53.64 89.16 56.152 89.112 57.912 89.016V89.976ZM88.8124 118.968C89.2284 120.024 89.7084 120.792 90.2524 121.272C90.7964 121.752 91.3244 122.008 91.8364 122.04V123C89.9164 122.904 87.4844 122.856 84.5404 122.856C81.2764 122.856 78.8444 122.904 77.2444 123V122.04C78.4604 121.976 79.3244 121.832 79.8364 121.608C80.3484 121.352 80.6044 120.92 80.6044 120.312C80.6044 119.736 80.4124 118.968 80.0284 118.008L77.1484 110.136H66.6844L65.4364 113.448C64.5404 115.752 64.0924 117.528 64.0924 118.776C64.0924 119.96 64.4444 120.792 65.1484 121.272C65.8844 121.72 66.9564 121.976 68.3644 122.04V123C66.1884 122.904 64.2044 122.856 62.4124 122.856C60.9404 122.856 59.7244 122.904 58.7644 123V122.04C60.3324 121.752 61.7084 120.072 62.8924 117L73.8364 88.92C74.1884 88.952 74.7484 88.968 75.5164 88.968C76.2844 88.968 76.8284 88.952 77.1484 88.92L88.8124 118.968ZM76.8124 109.176L72.0604 96.216L67.0684 109.176H76.8124ZM107.315 89.976C106.163 90.04 105.315 90.168 104.771 90.36C104.259 90.552 103.907 90.92 103.715 91.464C103.523 92.008 103.427 92.888 103.427 94.104V118.488C103.427 119.512 103.507 120.264 103.667 120.744C103.827 121.192 104.099 121.496 104.483 121.656C104.899 121.816 105.555 121.896 106.451 121.896H108.803C110.979 121.896 112.851 120.92 114.419 118.968C116.019 117.016 117.059 114.424 117.539 111.192H118.643C118.547 112.28 118.499 113.688 118.499 115.416C118.499 118.488 118.611 121.016 118.835 123C116.659 122.904 112.995 122.856 107.843 122.856C100.867 122.856 95.6505 122.904 92.1945 123V122.04C93.2505 121.976 94.0185 121.848 94.4985 121.656C95.0105 121.464 95.3465 121.096 95.5065 120.552C95.6985 120.008 95.7945 119.128 95.7945 117.912V94.104C95.7945 92.888 95.6985 92.008 95.5065 91.464C95.3465 90.92 95.0105 90.552 94.4985 90.36C94.0185 90.168 93.2505 90.04 92.1945 89.976V89.016C93.8265 89.112 96.3545 89.16 99.7785 89.16C103.043 89.16 105.555 89.112 107.315 89.016V89.976ZM136.658 89.976C135.506 90.04 134.658 90.168 134.114 90.36C133.602 90.552 133.25 90.92 133.058 91.464C132.866 92.008 132.77 92.888 132.77 94.104V118.488C132.77 119.512 132.85 120.264 133.01 120.744C133.17 121.192 133.442 121.496 133.826 121.656C134.242 121.816 134.898 121.896 135.794 121.896H138.146C140.322 121.896 142.194 120.92 143.762 118.968C145.362 117.016 146.402 114.424 146.882 111.192H147.986C147.89 112.28 147.842 113.688 147.842 115.416C147.842 118.488 147.954 121.016 148.178 123C146.002 122.904 142.338 122.856 137.186 122.856C130.21 122.856 124.994 122.904 121.538 123V122.04C122.594 121.976 123.362 121.848 123.842 121.656C124.354 121.464 124.69 121.096 124.85 120.552C125.042 120.008 125.138 119.128 125.138 117.912V94.104C125.138 92.888 125.042 92.008 124.85 91.464C124.69 90.92 124.354 90.552 123.842 90.36C123.362 90.168 122.594 90.04 121.538 89.976V89.016C123.17 89.112 125.698 89.16 129.122 89.16C132.386 89.16 134.898 89.112 136.658 89.016V89.976Z" fill="white"/>
<path d="M292.886 41.7781C294.086 41.7781 294.966 41.3781 295.206 40.4981C291.606 37.2181 285.686 32.5781 285.686 32.5781L280.566 39.4581H254.246L254.886 41.7781H292.886ZM266.246 58.4181C263.926 65.3781 257.846 76.5781 253.206 80.4981C252.486 81.0581 250.646 81.5381 250.646 81.5381L253.766 91.8581C254.566 91.6181 255.446 90.9781 256.166 90.0981C268.966 86.8981 279.846 83.7781 287.046 81.5381C288.166 84.4181 289.126 87.2181 289.606 89.9381C299.126 97.6181 306.966 77.7781 280.246 66.4981L279.366 66.9781C281.766 70.6581 284.246 75.2181 286.326 79.7781C275.286 80.6581 264.646 81.3781 257.446 81.6981C264.086 76.8981 271.446 69.5381 275.526 64.0181C277.126 64.1781 278.086 63.6181 278.406 62.8181L269.126 58.4181H297.846C298.966 58.4181 299.846 58.0181 300.086 57.1381C296.406 53.8581 290.406 49.1381 290.406 49.1381L285.046 56.1781H248.566L249.206 58.4181H266.246ZM228.886 33.7781C232.166 38.4181 235.926 45.1381 237.046 50.8981C245.846 57.5381 253.286 40.0181 229.606 33.3781L228.886 33.7781ZM244.086 64.2581C246.326 63.9381 247.526 63.2981 248.086 62.5781L238.646 54.9781L234.246 60.7381H225.766L226.246 63.0581H235.446V90.8181C232.246 92.8181 228.326 95.2981 225.446 96.8981L231.446 106.018C232.166 105.618 232.486 104.978 232.246 104.178C234.726 100.018 238.486 94.4981 240.086 92.0981C240.966 90.7381 241.766 90.5781 242.886 92.0181C249.606 101.058 256.646 104.658 272.806 104.658H294.646C295.046 101.058 297.046 97.9381 300.566 97.1381V96.0981C291.686 96.6581 284.246 96.7381 275.606 96.7381C259.286 96.7381 250.486 95.2181 244.086 89.3781V64.2581ZM338.486 43.8581C339.686 43.8581 340.486 43.4581 340.726 42.5781C337.446 39.5381 332.006 35.2181 332.006 35.2181L327.206 41.5381H308.246L308.886 43.8581H338.486ZM328.006 71.6981C329.446 75.5381 330.806 80.1781 331.446 84.7381C323.606 85.6981 316.246 86.4981 311.286 86.8981C317.126 81.6181 324.006 72.9781 327.926 66.4981C329.446 66.4981 330.326 65.7781 330.646 64.9781L319.366 61.3781H342.886C344.006 61.3781 344.806 60.9781 345.046 60.0981C341.766 57.0581 336.326 52.8181 336.326 52.8181L331.526 59.0581H304.886L305.526 61.3781H318.006C316.566 68.5781 311.686 81.1381 308.006 85.3781C307.286 85.9381 305.046 86.4181 305.046 86.4181L310.086 98.4181C310.886 98.0981 311.686 97.3781 312.246 96.4181C320.006 93.4581 326.646 90.4981 331.846 88.0981C331.926 89.5381 331.926 90.9781 331.846 92.4181C339.366 100.498 348.406 83.6981 328.966 71.3781L328.006 71.6981ZM372.726 46.4981L367.846 51.4581H358.886C358.966 46.2581 358.966 40.8181 359.046 35.2181C360.966 34.8981 361.766 34.0981 362.006 32.8981L349.606 31.7781C349.606 38.7381 349.686 45.2981 349.606 51.4581H338.966L339.686 53.7781H349.606C349.206 75.6981 346.486 92.4981 329.926 105.858L330.726 106.978C354.486 95.0581 358.086 77.3781 358.806 53.7781H368.726C368.086 79.9381 367.126 92.8981 364.406 95.3781C363.686 96.0981 363.046 96.3381 361.686 96.3381C360.006 96.3381 356.006 96.0981 353.446 95.8581L353.366 96.9781C356.326 97.6181 358.566 98.7381 359.686 100.098C360.646 101.298 360.886 103.378 360.886 106.338C365.126 106.338 368.566 105.138 371.206 102.418C375.526 98.1781 376.806 86.4981 377.526 55.2981C379.286 54.9781 380.326 54.4981 380.966 53.7781L372.726 46.4981ZM416.966 90.3381V78.0181H427.766V90.3381H416.966ZM436.166 78.9781C437.366 78.8181 438.326 78.1781 438.726 77.6981L434.646 74.6581C442.646 79.0581 447.766 63.7781 425.766 60.8181L425.046 61.3781C428.646 64.6581 433.046 70.0181 434.566 74.5781L430.886 71.7781L427.046 75.7781H417.286L410.886 73.2181C413.846 71.0581 416.806 68.4981 419.446 65.8581C421.126 66.2581 422.326 65.6181 422.726 64.8181L412.646 59.4581C409.526 66.2581 405.286 73.2181 402.086 77.4581L403.046 78.2581C404.806 77.2981 406.726 76.0981 408.646 74.8181V98.0981H409.846C413.286 98.0981 416.966 96.2581 416.966 95.5381V92.6581H427.766V96.5781H429.206C431.846 96.5781 436.086 95.0581 436.166 94.5781V78.9781ZM442.806 56.4181H431.526C434.886 53.9381 438.166 50.9781 440.566 48.6581C442.406 48.6581 443.286 47.9381 443.606 46.9781L431.126 44.0981C430.486 47.6981 429.286 52.7381 428.086 56.4181H414.246C418.406 54.4181 418.806 46.4981 404.566 44.4181L403.846 44.8981C405.766 47.5381 407.926 51.6181 408.406 55.4581C408.966 55.8581 409.446 56.1781 410.006 56.4181H401.686L391.766 52.4181V106.738H393.286C397.126 106.738 400.966 104.658 400.966 103.618V58.6581H443.606V95.5381C443.606 96.5781 443.286 97.1381 441.926 97.1381C440.166 97.1381 432.966 96.5781 432.966 96.5781V97.6981C436.726 98.2581 438.326 99.3781 439.526 100.658C440.566 102.018 440.886 104.098 441.126 106.978C451.526 106.018 452.886 102.498 452.886 96.4181V60.2581C454.486 59.9381 455.686 59.1381 456.166 58.4981L447.046 51.5381L442.806 56.4181ZM444.886 41.6981H426.246C430.246 39.4581 430.326 32.2581 416.486 31.3781L415.846 31.8581C417.686 34.0181 419.686 37.6981 420.086 40.9781C420.486 41.2981 420.886 41.5381 421.206 41.6981H385.686L386.326 43.9381H458.246C459.446 43.9381 460.246 43.5381 460.486 42.6581C456.726 39.4581 450.406 34.8181 450.406 34.8181L444.886 41.6981ZM527.846 48.5781H523.526C523.446 44.4181 523.526 40.2581 523.606 36.1781C524.086 36.0981 524.486 36.0181 524.886 35.9381C526.806 37.9381 529.126 41.2981 529.846 44.3381C530.166 44.5781 530.486 44.7381 530.806 44.8181L527.846 48.5781ZM505.366 65.4581C505.126 78.0181 504.726 83.9381 503.606 85.3781C503.286 85.7781 502.966 85.9381 502.326 85.9381C501.286 85.9381 498.486 85.7781 496.406 85.6181C498.646 78.8981 499.046 72.0181 499.046 66.0181V65.4581H505.366ZM482.006 56.7381H490.326H490.486V66.0181C490.486 69.2981 490.406 72.5781 490.166 75.9381C487.366 76.8181 484.646 77.6181 482.006 78.4181V56.7381ZM540.726 83.0581L539.846 82.8981C538.566 86.2581 536.806 90.0981 535.766 92.0981C534.966 93.5381 534.566 93.6181 533.686 92.2581C531.606 89.4581 529.926 86.1781 528.566 82.5781C532.006 76.8981 534.886 70.3381 537.286 62.6581C539.366 62.7381 540.166 62.2581 540.566 61.2181L529.926 57.6181C528.726 62.9781 527.286 67.7781 525.686 72.1781C524.406 65.5381 523.846 58.2581 523.606 50.8181H538.486C539.606 50.8181 540.406 50.4181 540.646 49.6181C538.966 48.0981 536.646 46.1781 534.886 44.8181C538.806 42.8981 538.966 35.4581 525.926 35.2181C526.326 34.8181 526.486 34.4181 526.486 33.9381L514.886 32.7381C514.886 38.1781 514.966 43.4581 515.126 48.5781H500.406L490.486 44.9781V53.2181C488.246 50.6581 485.766 48.0981 485.766 48.0981L482.006 54.3381V36.4981C484.166 36.1781 484.806 35.3781 484.966 34.2581L473.206 33.2181V54.4981H465.446L466.086 56.7381H473.206V81.0581C469.446 82.0981 466.326 82.9781 464.406 83.3781L469.286 94.0181C470.166 93.6981 470.966 92.8181 471.286 91.6981C479.526 86.0981 485.686 81.3781 489.926 77.9381C488.886 87.7781 485.926 97.5381 478.086 105.778L478.886 106.578C488.646 100.978 493.686 93.6181 496.326 85.9381V86.6581C498.486 87.2181 500.326 88.2581 501.206 89.3781C502.006 90.3381 502.246 92.1781 502.246 93.8581C505.046 93.8581 507.446 93.2981 509.366 91.8581C512.486 89.2181 512.966 82.1781 513.286 66.6581C514.806 66.4181 515.846 65.8581 516.326 65.2181L508.806 59.0581L504.646 63.1381H499.046V50.8181H515.286C515.846 62.8981 517.126 74.0981 520.166 84.0181C515.126 92.7381 508.566 99.2981 500.166 104.818L500.886 106.018C509.766 102.098 516.886 97.2181 522.566 90.7381C524.006 94.1781 525.686 97.4581 527.766 100.498C530.246 104.178 536.006 108.418 540.086 105.618C541.606 104.578 541.126 101.698 538.966 96.6581L540.726 83.0581Z" fill="white"/>
</svg>
